<?xml version="1.0" standalone="no"?>
<!DOCTYPE svg PUBLIC "-//W3C//DTD SVG 20010904//EN"
 "http://www.w3.org/TR/2001/REC-SVG-20010904/DTD/svg10.dtd">
<svg version="1.0" xmlns="http://www.w3.org/2000/svg"
 width="557.000000pt" height="557.000000pt" viewBox="0 0 557.000000 557.000000"
 preserveAspectRatio="xMidYMid meet">
<metadata>
Created by potrace 1.14, written by Peter Selinger 2001-2017
</metadata>
<g transform="translate(0.000000,557.000000) scale(0.100000,-0.100000)"
fill="#000000" stroke="none">
<path d="M2487 5224 c-1 -1 -43 -5 -92 -8 -90 -6 -167 -14 -215 -22 -14 -3
-43 -7 -65 -10 -51 -8 -85 -21 -85 -33 0 -8 -30 -19 -75 -28 -118 -21 -449
-142 -590 -215 -91 -47 -100 -52 -106 -61 -3 -5 -9 -8 -13 -7 -11 3 -168 -102
-261 -173 -148 -115 -353 -319 -439 -437 -53 -72 -199 -295 -210 -320 -6 -14
-14 -27 -17 -30 -13 -10 -89 -173 -89 -191 0 -10 -4 -19 -9 -19 -7 0 -44 -82
-42 -95 1 -3 -6 -20 -15 -38 -15 -27 -23 -53 -37 -112 -1 -5 -6 -15 -9 -21 -9
-14 -27 -83 -39 -154 -6 -30 -13 -62 -16 -70 -8 -20 -8 -18 -18 -75 -44 -260
-48 -401 -21 -720 9 -111 42 -271 86 -410 10 -33 26 -87 36 -120 9 -33 23 -67
30 -76 8 -8 14 -25 14 -36 0 -11 9 -32 20 -45 10 -14 17 -28 14 -31 -7 -6 71
-162 101 -202 13 -16 26 -40 30 -53 3 -12 10 -20 14 -18 4 3 13 -11 20 -30 7
-19 17 -32 22 -29 5 4 9 -1 9 -10 0 -8 13 -29 30 -47 16 -17 30 -35 30 -40 0
-5 5 -6 12 -2 7 4 8 3 4 -4 -4 -6 5 -21 19 -34 14 -12 25 -28 25 -35 0 -7 5
-13 10 -13 6 0 14 -8 17 -17 7 -19 127 -140 209 -211 27 -24 57 -50 66 -59 9
-8 22 -12 29 -7 7 4 10 3 7 -2 -3 -5 0 -15 8 -22 8 -7 14 -10 14 -7 0 3 11 -6
25 -20 14 -14 30 -25 36 -25 5 0 22 -12 37 -26 23 -22 61 -45 143 -89 11 -5
19 -13 19 -18 0 -4 4 -6 10 -2 5 3 18 -3 30 -15 11 -11 24 -20 30 -20 5 0 36
-14 68 -30 33 -17 64 -30 70 -30 7 0 26 -9 44 -19 17 -11 35 -18 39 -15 9 5
63 -20 88 -39 14 -12 37 -18 64 -18 9 0 17 -4 17 -9 0 -5 10 -7 21 -5 12 2 37
-2 56 -10 20 -8 44 -15 54 -15 11 0 19 -4 19 -10 0 -5 6 -7 14 -4 8 3 17 1 20
-5 4 -6 13 -8 21 -5 8 3 29 -2 47 -10 21 -11 34 -13 36 -6 2 5 8 10 13 10 6 0
8 -3 5 -8 -2 -4 23 -9 57 -10 34 -2 64 -8 65 -13 3 -6 9 -5 17 1 9 7 23 9 37
4 38 -13 137 -17 241 -11 31 2 57 1 57 -3 0 -7 98 -5 106 3 4 3 19 4 34 1 15
-4 31 -1 34 5 4 6 12 11 17 11 6 0 7 -5 3 -12 -4 -7 -3 -8 4 -4 17 10 50 17
102 20 25 2 54 8 66 14 11 6 33 12 49 15 17 2 38 7 47 11 10 5 25 6 33 2 8 -3
15 -1 15 5 0 6 7 8 16 5 9 -4 22 -2 28 2 6 5 25 13 41 17 17 5 36 10 43 12 6
1 18 4 25 6 6 1 18 6 25 10 6 5 17 5 22 2 6 -3 13 1 16 10 4 9 12 14 19 11 7
-2 26 4 42 14 16 10 44 21 61 25 18 3 34 11 37 16 4 5 13 9 21 9 8 0 24 9 36
19 11 11 26 17 34 14 8 -3 14 0 14 6 0 6 8 11 18 11 11 0 29 9 42 20 13 11 30
21 39 21 9 1 32 3 51 4 55 4 105 13 136 26 37 15 39 16 66 18 12 0 18 4 15 8
-8 7 58 33 86 33 9 0 25 4 35 9 34 19 108 48 134 55 15 3 33 13 42 21 8 8 17
15 20 15 15 0 106 45 106 52 0 5 5 6 11 3 6 -4 16 0 22 8 7 8 28 23 47 33 19
11 37 22 40 25 9 10 129 89 135 89 11 0 145 92 145 100 0 4 20 17 44 29 43 23
87 57 136 105 14 14 37 29 53 35 15 6 27 15 27 21 0 5 6 10 14 10 22 0 28 31
11 50 -15 17 -19 17 -62 -7 -58 -33 -64 -25 -58 92 2 50 7 198 10 330 4 132 8
242 11 244 2 2 16 5 31 6 16 2 39 7 53 13 14 5 27 9 30 9 3 0 24 10 47 22 24
11 46 20 50 19 14 -4 183 83 183 94 0 5 7 8 15 4 8 -3 15 -1 15 5 0 6 4 8 9 4
5 -3 13 4 16 16 4 12 12 18 21 15 8 -3 14 -1 14 4 0 5 15 17 33 26 17 9 36 23
40 30 4 8 12 14 18 14 5 0 22 11 36 24 14 13 37 30 52 37 14 7 36 22 49 33 12
11 22 16 22 11 0 -4 9 4 21 18 11 15 25 26 31 24 6 -1 11 10 12 26 1 15 -3 27
-9 27 -12 0 -65 54 -65 67 0 12 -185 133 -204 133 -9 0 -16 4 -16 9 0 5 -12
14 -27 20 -31 12 -65 32 -73 43 -3 4 -23 15 -45 25 -22 10 -58 30 -80 44 -45
29 -149 79 -163 79 -23 0 -32 34 -37 126 -5 105 -11 153 -26 223 -5 24 -8 46
-5 48 2 3 -2 23 -10 45 -7 22 -15 53 -16 69 -1 16 -5 29 -8 29 -3 0 -6 8 -7
18 -4 37 -12 68 -27 104 -9 21 -16 44 -16 52 0 8 -5 27 -12 43 -6 15 -12 30
-13 33 -1 3 -9 22 -18 44 -9 21 -17 41 -17 44 0 2 -18 41 -39 86 -21 44 -40
86 -41 91 -1 6 -12 24 -24 40 -11 17 -21 32 -21 35 -1 13 -29 56 -41 63 -8 4
-14 17 -14 27 0 12 -7 20 -17 20 -9 0 -14 3 -10 6 3 4 1 12 -6 20 -29 33 -37
44 -37 54 0 5 -4 10 -10 10 -5 0 -10 7 -10 15 0 8 -4 15 -8 15 -4 0 -15 12
-24 28 -9 15 -29 41 -45 59 -55 62 -68 78 -66 84 1 3 -9 12 -22 19 -14 7 -27
21 -30 31 -3 10 -14 21 -24 24 -10 3 -24 17 -31 30 -7 14 -18 25 -24 25 -6 0
-37 25 -70 55 -32 30 -61 55 -65 55 -3 0 -26 18 -50 40 -25 22 -50 40 -58 40
-7 0 -13 4 -13 8 0 5 -18 18 -40 31 -22 12 -40 25 -40 29 0 9 -49 32 -67 32
-7 0 -13 4 -13 9 0 5 -13 11 -30 15 -16 3 -30 12 -30 20 0 7 -10 17 -22 21
-13 4 -25 8 -28 9 -3 1 -16 8 -28 15 -13 7 -36 15 -50 17 -15 3 -34 11 -42 17
-29 23 -58 36 -96 43 -22 3 -46 12 -54 19 -13 10 -132 46 -170 50 -8 1 -22 5
-30 8 -96 34 -324 66 -513 70 -70 2 -128 2 -130 1z m-482 -164 c-3 -5 -11 -10
-16 -10 -6 0 -7 5 -4 10 3 6 11 10 16 10 6 0 7 -4 4 -10z m-275 -90 c0 -4 -26
-20 -57 -34 -32 -14 -65 -31 -73 -36 -8 -6 -55 -30 -105 -54 -49 -25 -100 -54
-113 -66 -12 -11 -27 -18 -32 -15 -6 3 -10 1 -10 -5 0 -6 -8 -14 -17 -17 -24
-9 -93 -53 -117 -75 -11 -10 -24 -18 -30 -18 -5 0 -18 -8 -29 -17 -11 -10 -17
-12 -13 -6 4 7 28 27 54 45 26 18 52 36 57 40 38 31 165 117 165 111 0 -3 8 0
18 8 27 22 60 39 77 39 8 0 15 5 15 10 0 6 11 15 25 20 14 5 45 19 69 30 25
11 49 20 54 20 5 0 15 6 21 13 11 14 41 19 41 7z m1768 -79 c3 -8 -1 -12 -9
-9 -7 2 -15 10 -17 17 -3 8 1 12 9 9 7 -2 15 -10 17 -17z m62 -33 c0 -5 4 -7
9 -3 6 3 14 -3 20 -12 5 -10 11 -16 13 -14 7 8 46 -10 52 -24 7 -19 -5 -19
-30 0 -10 8 -26 15 -34 15 -9 0 -22 9 -30 20 -8 11 -20 20 -27 20 -7 0 -13 4
-13 9 0 5 9 7 20 4 11 -3 20 -10 20 -15z m130 -66 c0 -5 12 -15 28 -23 15 -7
37 -24 50 -37 12 -13 22 -20 22 -17 0 9 48 -25 83 -58 l32 -31 -33 20 c-18 10
-42 27 -52 37 -11 9 -24 17 -30 17 -6 0 -13 7 -16 15 -4 8 -12 15 -19 15 -7 0
-19 7 -26 16 -7 9 -23 20 -36 25 -23 8 -32 29 -13 29 6 0 10 -4 10 -8z m282
-211 c30 -29 39 -54 10 -28 -10 10 -23 17 -28 17 -6 0 -21 12 -33 26 l-22 26
23 -7 c13 -4 35 -19 50 -34z m-2932 -25 c0 -3 -4 -8 -10 -11 -5 -3 -10 -1 -10
4 0 6 5 11 10 11 6 0 10 -2 10 -4z m-36 -41 c-4 -8 -11 -15 -16 -15 -6 0 -5 6
2 15 7 8 14 15 16 15 2 0 1 -7 -2 -15z m-43 -42 c-18 -30 -38 -53 -46 -53 -5
0 -17 -7 -27 -17 -10 -9 -18 -13 -18 -9 0 7 91 96 98 96 1 0 -2 -8 -7 -17z
m-129 -135 c-18 -17 -35 -29 -38 -25 -9 9 6 28 17 22 5 -4 9 1 9 9 0 8 8 19
17 25 30 16 27 3 -5 -31z m-52 -48 c0 -5 -9 -14 -20 -20 -24 -13 -26 -7 -4 14
18 18 24 20 24 6z m3427 -34 c28 -8 54 -11 57 -8 3 3 6 0 6 -6 0 -7 6 -11 13
-9 6 1 11 -6 11 -16 -2 -14 1 -15 13 -6 11 10 15 8 20 -9 3 -12 4 -24 2 -26
-2 -3 5 -12 16 -21 17 -14 17 -16 3 -11 -10 3 -18 1 -18 -4 0 -6 9 -10 20 -10
11 0 20 -5 20 -11 0 -5 -6 -7 -12 -3 -8 5 -7 0 2 -11 14 -17 13 -18 -3 -12
-12 5 -16 3 -11 -5 5 -8 2 -9 -10 -5 -10 4 -15 3 -11 -3 3 -6 12 -10 20 -10
11 0 12 -6 3 -31 -9 -26 -14 -30 -36 -24 -21 5 -24 4 -14 -8 10 -11 9 -17 -4
-28 -13 -11 -17 -10 -25 2 -7 12 -9 11 -9 -3 0 -18 -47 -32 -85 -25 -36 6 -67
28 -61 43 3 9 1 12 -4 9 -6 -3 -10 2 -10 12 0 15 -2 16 -10 3 -6 -10 -6 -16 0
-18 6 -2 10 -11 10 -20 0 -11 -3 -13 -8 -6 -4 6 -15 13 -24 17 -10 3 -18 14
-18 22 0 9 -4 13 -10 10 -10 -6 -14 19 -10 65 3 35 29 82 41 74 6 -3 10 0 8 7
-3 27 1 37 30 68 33 36 30 35 98 17z m-3487 -30 c0 -3 -4 -8 -10 -11 -5 -3
-10 -1 -10 4 0 6 5 11 10 11 6 0 10 -2 10 -4z m1457 -402 c12 0 20 3 17 8 -3
4 13 8 35 8 30 0 44 -6 55 -22 10 -13 16 -17 16 -9 0 32 54 -37 66 -84 1 -5 5
-18 9 -27 5 -12 2 -18 -7 -18 -8 0 -15 -7 -15 -15 0 -8 5 -15 11 -15 6 0 4 -5
-4 -11 -11 -7 -12 -12 -3 -15 7 -3 9 -12 6 -20 -3 -7 -10 -11 -16 -7 -6 4 -8
0 -5 -9 5 -13 -22 -48 -37 -48 -2 0 -27 -13 -55 -30 -27 -16 -50 -26 -50 -21
0 4 -12 7 -27 5 -34 -3 -116 32 -132 58 -22 36 -37 123 -27 161 12 50 117 141
136 118 3 -3 15 -6 27 -7z m2356 -32 c-4 -10 -10 -9 -24 4 -14 13 -16 20 -8
25 15 9 38 -12 32 -29z m-4181 -164 c-7 -7 -12 -8 -12 -2 0 14 12 26 19 19 2
-3 -1 -11 -7 -17z m4134 -603 c20 -19 4 -20 -22 0 -12 9 -14 14 -6 15 7 0 20
-7 28 -15z m963 -489 c9 -11 9 -16 -1 -22 -7 -4 -10 -4 -6 1 4 4 3 14 -3 22
-6 7 -9 13 -6 13 2 0 10 -6 16 -14z m-148 -109 c-6 -8 -29 -22 -51 -32 -22
-10 -40 -21 -40 -25 0 -4 -9 -10 -20 -13 -41 -11 -18 11 48 46 76 41 79 42 63
24z m-171 -101 c0 -6 -84 -46 -96 -46 -5 1 11 12 36 25 44 24 60 29 60 21z
m-110 -50 c0 -2 -7 -7 -16 -10 -8 -3 -12 -2 -9 4 6 10 25 14 25 6z m-2020
-156 c-8 -5 -31 -9 -50 -8 l-35 1 40 7 c59 11 61 11 45 0z m1270 -10 c0 -5
-17 -9 -37 -9 -38 1 -38 1 -8 9 43 11 45 11 45 0z m78 4 c-12 -11 -68 -15 -68
-5 0 6 17 11 37 11 20 0 34 -3 31 -6z m-1521 -10 c-3 -3 -12 -4 -19 -1 -8 3
-5 6 6 6 11 1 17 -2 13 -5z m800 0 c-3 -3 -12 -4 -19 -1 -8 3 -5 6 6 6 11 1
17 -2 13 -5z m546 -1 c-7 -2 -19 -2 -25 0 -7 3 -2 5 12 5 14 0 19 -2 13 -5z
m-1554 -47 c-2 -2 -15 -9 -29 -15 -24 -11 -24 -11 -6 3 16 13 49 24 35 12z
m2096 -170 l0 -157 -81 -2 c-58 -2 -80 1 -77 9 3 9 -12 11 -52 7 -38 -3 -61
-1 -72 9 -9 7 -14 8 -10 2 10 -17 -36 -32 -148 -50 -11 -2 -63 -6 -115 -9 -52
-3 -142 -10 -200 -15 -58 -5 -154 -12 -215 -15 -60 -3 -126 -8 -145 -10 -19
-2 -84 -6 -145 -9 -60 -3 -130 -8 -154 -12 -107 -14 -129 -17 -186 -19 -33 -1
-62 -3 -65 -4 -3 -1 -59 -4 -125 -6 -66 -3 -154 -10 -195 -15 -98 -14 -169
-21 -255 -26 -165 -9 -183 -9 -175 1 5 6 8 20 6 30 -2 11 1 27 5 35 4 8 16 40
25 70 9 30 22 66 30 80 19 40 106 126 134 135 14 4 30 12 37 17 7 5 17 7 22 4
5 -4 12 -2 15 3 7 10 128 50 174 57 71 11 160 16 262 13 8 0 40 3 70 6 30 3
60 6 65 6 6 -1 53 -3 105 -6 52 -3 112 -6 133 -6 20 0 37 -3 37 -7 0 -7 80
-11 275 -14 64 -1 113 -6 118 -12 5 -8 9 -8 15 0 4 6 16 9 27 7 57 -11 75 -11
81 -1 4 7 9 6 15 -3 7 -11 9 -11 9 -1 0 10 5 10 21 1 17 -9 23 -8 30 2 7 11 9
11 9 1 0 -7 5 -10 11 -7 6 4 88 8 184 9 127 1 177 5 189 15 11 9 16 10 16 2 0
-9 5 -9 21 0 12 6 49 13 83 15 129 8 161 13 164 24 2 6 9 9 16 7 8 -3 11 -51
11 -161z m-2454 -13 c-12 -20 -14 -14 -5 12 4 9 9 14 11 11 3 -2 0 -13 -6 -23z
m42 -48 c-3 -9 -8 -14 -10 -11 -3 3 -2 9 2 15 9 16 15 13 8 -4z m2403 -232
c-14 -168 -14 -223 1 -231 8 -5 -11 -16 -57 -31 -67 -21 -84 -26 -140 -37
-155 -32 -232 -46 -269 -50 -23 -2 -57 -11 -75 -18 -17 -7 -63 -17 -101 -21
-39 -4 -75 -11 -80 -15 -11 -9 -107 -28 -175 -35 -330 -35 -306 -33 -647 -40
-231 -5 -321 -3 -430 10 -198 23 -200 23 -233 40 -17 9 -30 13 -30 10 0 -8
-90 53 -111 75 -33 33 -53 86 -56 145 -2 33 -5 77 -7 97 -2 21 0 36 4 33 11
-7 243 -7 310 0 78 7 163 14 250 19 41 2 77 5 80 6 3 2 25 5 50 6 25 2 77 6
115 8 39 3 102 8 140 10 39 3 84 7 100 10 17 3 86 8 155 11 69 3 139 8 155 11
17 2 91 6 165 8 74 3 155 7 180 10 25 4 68 7 95 8 28 0 57 4 65 8 15 8 177 18
404 25 65 2 121 6 124 9 20 20 24 -1 18 -81z m-2519 -5 c-3 -8 -6 -5 -6 6 -1
11 2 17 5 13 3 -3 4 -12 1 -19z m-1557 -290 c0 -6 -6 -5 -15 2 -8 7 -15 14
-15 16 0 2 7 1 15 -2 8 -4 15 -11 15 -16z m3880 -138 c0 -5 -5 -10 -11 -10 -5
0 -7 5 -4 10 3 6 8 10 11 10 2 0 4 -4 4 -10z m-1070 -142 c0 -3 -27 -8 -60
-10 -57 -3 -85 7 -37 14 38 5 97 3 97 -4z m-322 -5 c-10 -2 -28 -2 -40 0 -13
2 -5 4 17 4 22 1 32 -1 23 -4z m1092 -29 c0 -6 -172 -87 -207 -98 -37 -12 -26
4 15 20 20 8 51 21 67 29 52 24 120 54 123 55 1 0 2 -2 2 -6z m-260 -119 c-14
-8 -32 -14 -40 -14 -9 0 -4 6 10 14 14 8 32 14 40 14 9 0 4 -6 -10 -14z m-70
-19 c0 -11 -19 -15 -25 -6 -3 5 1 10 9 10 9 0 16 -2 16 -4z m-2100 -296 c0 -5
-2 -10 -4 -10 -3 0 -8 5 -11 10 -3 6 -1 10 4 10 6 0 11 -4 11 -10z m635 -52
c4 0 11 6 15 12 6 9 13 9 26 1 23 -13 23 -12 -46 -15 -30 -2 -47 -1 -37 1 9 3
17 10 17 16 0 8 3 8 9 -1 4 -8 12 -14 16 -14z"/>
<path d="M4114 4224 c3 -3 0 -18 -5 -32 -8 -21 -7 -23 5 -13 14 12 16 36 3 46
-4 3 -5 2 -3 -1z"/>
<path d="M4310 4051 c0 -5 6 -11 13 -14 8 -3 14 1 14 9 0 8 -6 14 -14 14 -7 0
-13 -4 -13 -9z"/>
<path d="M4280 3989 c0 -5 5 -7 10 -4 6 3 10 8 10 11 0 2 -4 4 -10 4 -5 0 -10
-5 -10 -11z"/>
<path d="M4620 1999 c0 -5 5 -7 10 -4 6 3 10 8 10 11 0 2 -4 4 -10 4 -5 0 -10
-5 -10 -11z"/>
<path d="M4551 1997 c2 -1 11 -8 21 -15 12 -10 18 -10 24 -1 4 7 3 9 -4 5 -6
-3 -13 -2 -17 4 -3 5 -11 10 -17 10 -6 0 -9 -1 -7 -3z"/>
<path d="M4445 1760 c3 -5 8 -10 11 -10 2 0 4 5 4 10 0 6 -5 10 -11 10 -5 0
-7 -4 -4 -10z"/>
</g>
</svg>
